<svg width="473" height="424" viewBox="0 0 473 424" fill="none" xmlns="http://www.w3.org/2000/svg">
<path d="M293.888 0.761559C307.397 -1.03116 327.773 20.9672 339.34 20.7111C346.287 20.5522 352.67 11.7652 361.721 11.9683C369.555 12.1449 374.049 18.7594 380.208 20.2696C393.369 23.5018 414.282 0.487793 427.057 0.487793C432.348 0.487793 467.012 19.828 469.438 24.0934C470.772 26.4337 471.086 28.3766 471.408 30.9817C472.285 38.2056 472.384 62.8357 471.292 69.7858C469.546 80.8071 444.201 89.1172 435.097 95.8995C421.82 105.79 430.665 109.72 426.806 121.28C424.282 128.84 409.17 130.509 406.627 140.232C403.798 151.041 409.233 170.938 403.736 179.769C398.239 188.6 366.753 198.376 363.727 206.536C361.65 212.126 364.237 221.028 361.48 227.28C359.242 232.35 352.429 233.886 349.698 236.853C341.793 245.446 349.34 275.746 345.365 286.449C341.73 296.234 305.15 306.778 303.127 317.199C302.366 321.094 303.628 326.339 303.064 330.384C301.113 344.479 284.873 343.79 281.981 351.976C277.791 363.819 284.336 392.167 278.391 400.539C275.016 405.299 240.791 424.065 234.685 423.5C229.483 423.014 195.383 403.453 193.074 399.152C186.941 387.725 195.947 356.948 188.024 348.497C185.249 345.538 178.275 343.666 175.106 340.928C166.234 333.29 171.39 326.339 169.466 317.349C166.977 305.745 135.124 297.885 129.206 288.18C122.259 276.788 131.229 246.02 124.049 237.631C122.214 235.493 116.762 233.966 114.604 231.934C106.341 224.145 111.811 215.429 109.197 207.243C106.583 199.056 73.4496 188.335 68.1139 179.769C62.7782 171.203 68.0423 151.041 65.2223 140.232C62.6797 130.509 49.1525 129.732 45.7863 122.313C40.3342 110.312 50.6117 106.417 35.3208 95.5462C27.8902 90.2564 4.25545 80.8777 1.45331 73.3183C-0.0865314 69.2029 -0.390918 34.3552 0.531194 29.3215C1.19368 25.6919 4.01373 22.707 6.78902 20.4815C9.56431 18.2561 39.0003 1.88311 41.2563 1.50337C57.156 -1.17246 76.4667 24.2966 91.8203 20.455C95.2312 19.5984 101.543 13.7698 105.455 12.7189C118.329 9.26595 121.149 18.468 130.245 20.4374C144.712 23.5724 163.002 0.911688 177.29 1.37091C190.567 1.7948 208.472 23.2633 222.724 20.6581C227.219 19.8368 230.182 15.4919 236.359 15.4919C242.536 15.4919 246.601 20.7199 252.465 20.9584C263.476 21.3911 283.047 2.20987 293.879 0.77039L293.888 0.761559ZM295.661 6.08674C290.522 6.32518 262.841 21.1438 262.85 25.7272C262.85 29.401 279.716 39.0711 283.011 39.389C287.899 39.857 291.31 35.8124 296.35 35.8124C300.674 35.8124 304.318 38.8944 308.857 38.5854C313.396 38.2763 331.408 28.6062 328.579 22.6363C327.129 19.5807 300.397 5.86596 295.661 6.08674ZM426.377 6.07791C421.274 6.27219 393.324 21.082 393.673 25.5947C393.933 28.9417 409.868 38.2851 413.145 39.0004C421.05 40.7225 431.963 32.5184 438.096 43.5308C445.992 57.7136 429.098 59.0824 427.514 70.7925C426.806 76.0382 425.866 90.8569 433.288 90.7068C435.508 90.6626 459.832 76.8507 461.954 74.7312C469.555 67.1188 469.904 38.3646 465.84 29.4098C462.787 22.6893 433.592 5.80414 426.377 6.07791ZM42.3217 90.4065C44.8373 88.0839 44.8463 71.8964 44.2465 68.1962C42.5723 57.8726 27.6574 57.2809 33.9779 42.8861C39.609 30.0721 52.3485 39.91 60.4685 38.0996C63.566 37.4108 77.5499 29.2067 77.541 25.7184C77.532 21.0644 50.1014 6.66076 44.7747 6.66076C37.8902 6.66076 9.33154 23.3605 6.22501 29.6306C2.58133 36.9693 2.67085 65.0081 7.23665 72.0112C10.182 76.524 28.105 86.9977 33.5661 89.3026C36.1981 90.4154 39.4927 92.994 42.3127 90.3889L42.3217 90.4065ZM173.924 6.94336C169.17 7.57037 143.226 21.7002 143.861 26.4072C144.282 29.4981 160.119 38.6913 163.172 39.2124C168.194 40.0602 171.919 37.3313 177.299 37.5963C185.607 38.0025 183.655 42.0118 193.548 37.7994C197.809 35.989 210.388 29.401 208.893 24.1553C207.666 19.8368 180.191 6.1044 173.915 6.93453L173.924 6.94336ZM109.502 17.5231C105.177 17.841 93.2169 23.8108 91.3189 27.9173C89.7254 31.3791 89.045 61.6082 90.173 65.2642C91.7755 70.4393 99.6537 63.5687 103.217 62.6149C117.031 58.9235 126.574 67.9842 128.803 67.525C133.915 66.4741 132.545 34.1698 130.477 29.0477C128.194 23.3958 115.679 17.0639 109.502 17.5231ZM381.847 65.4674C382.733 63.3302 381.847 36.0773 381.847 31.0259C381.847 25.1885 367.415 17.9028 362.33 17.5319C355.079 16.9932 342.894 23.7049 341.641 31.1142C341.014 34.8321 341.023 66.2445 343.029 66.8627C345.034 67.4809 356.941 59.5417 368.812 62.4206C371.704 63.1271 380.244 69.3089 381.847 65.4585V65.4674ZM235.688 21.0909C210.889 22.0446 227.138 59.7713 219.68 74.1749C214.846 83.5182 182.348 93.7535 178.732 101.781C176.01 107.839 179.358 115.876 175.222 123.046C171.319 129.829 159.528 130.465 156.467 138.987C151.238 153.567 162.295 173.022 148.463 184.078C134.157 195.524 104.604 198.588 116.485 224.764C127.666 249.402 157.881 212.638 173.691 214.228C184.855 215.35 205.947 236.306 217.111 234.169C222.957 233.047 228.955 225.673 236.35 225.664C243.745 225.656 249.081 232.773 254.676 234.142C267.854 237.366 289.018 213.575 302.608 214.193C317.218 214.855 341.802 246.153 354.98 226.177C357.935 221.699 358.463 214.581 357.675 209.38C355.365 194.155 318.812 189.775 316.457 174.082C314.971 164.138 318.982 146.352 314.864 137.68C311.551 130.677 300.218 129.343 296.583 123.038C292.545 116.017 295.437 109.137 293.888 102.735C291.534 92.9499 260.334 83.7567 254.452 75.4024C245.831 63.1713 263.064 20.0223 235.661 21.0732L235.688 21.0909ZM331.498 32.483C326.52 32.6773 309.286 43.6456 309.492 50.4721C309.698 57.2986 333.933 71.8964 336.18 63.7011C336.851 61.2637 336.341 36.2451 335.347 34.5142C334.551 33.1365 333.154 32.43 331.498 32.4919V32.483ZM83.5033 34.3376C80.0119 30.7963 62.3485 41.7381 60.2357 44.9526C58.4004 47.7256 58.481 51.6555 56.6994 54.711C54.7746 58.0227 49.6807 61.9791 49.0003 64.7785C48.2303 67.9577 48.1319 87.925 50.5938 89.3203C55.088 91.8637 80.1103 76.259 82.6887 71.5167C84.882 67.4897 86.019 36.8898 83.5033 34.3376ZM139.895 33.3661C134.792 34.6025 135.661 62.5001 137.801 65.0965C141.095 69.097 157.783 59.0295 160.262 56.177C170.289 44.6788 144.023 32.3594 139.895 33.3573V33.3661ZM215.106 34.3287C211.865 30.9641 192.313 42.8685 190.379 46.1536C188.445 49.4388 188.911 53.7219 186.529 57.3692C184.282 60.831 178.982 62.0939 177.917 66.5359C176.717 71.5255 175.258 92.6938 183.306 91.3603C187.908 90.6008 211.937 75.7292 214.273 71.499C216.61 67.2689 217.541 36.8721 215.097 34.3376L215.106 34.3287ZM388.328 34.3376C386.09 36.616 386.959 65.4409 388.516 69.4855C390.656 75.0403 415.813 90.7421 420.065 89.126C424.318 87.5099 423.763 70.4658 422.966 66.4123C422.321 63.1183 417.102 58.5437 415.052 54.7905C413.557 52.0617 414.031 48.3614 412.142 45.297C410.101 41.9853 391.793 30.8228 388.328 34.3376ZM260.415 73.539C262.232 75.6762 285.509 89.5499 288.042 90.0798C297.156 91.9785 295.052 67.1806 293.1 62.9328C291.901 60.3188 288.051 59.0824 286.538 57.0424C284.148 53.8191 283.996 49.6508 282.357 47.0368C279.707 42.8155 262.133 31.2555 257.827 34.9734C254.524 37.8347 255.885 68.2139 260.415 73.5302V73.539ZM305.508 59.9126C295.911 60.725 299.206 87.7395 300.728 88.9494C304.792 92.1816 328.534 78.1489 328.821 74.1572C329.107 70.1655 309.313 59.5858 305.508 59.9126ZM163.181 60.7957C159.618 61.3785 142.939 70.4923 143.673 75.1198C143.996 77.1421 169.958 96.0496 172.322 86.6268C174.085 79.5795 174.998 58.8705 163.181 60.7957ZM82.6081 80.1712C81.122 80.1977 58.9734 92.5613 56.601 94.3452C39.2688 107.362 52.9662 132.434 68.2572 127.912C70.746 127.179 97.5499 111.116 97.9169 109.42C98.4451 107.027 88.6063 97.5156 86.8068 91.5634C85.8131 88.287 87.729 80.0652 82.617 80.1624L82.6081 80.1712ZM138.006 80.2242C135.249 80.8336 134.578 92.4288 132.859 96.2616C130.961 100.492 122.76 106.356 124.139 110.33C124.685 111.91 150.943 127.285 152.903 127.904C168.248 132.761 181.373 107.38 165.661 95.0164C162.984 92.9057 139.86 79.8091 138.006 80.2154V80.2242ZM333.288 80.1801C331.498 80.2507 308.006 93.4533 305.625 95.3696C290.719 107.38 303.7 132.734 318.919 127.912C321.31 127.153 348.212 111.116 348.579 109.429C349.161 106.762 340.343 98.699 338.704 93.886C337.129 89.2496 338.275 79.9769 333.288 80.1889V80.1801ZM387.335 80.1536C386.681 80.5686 385.687 91.9078 384.327 95.2901C382.089 100.854 372.805 106.205 375.123 110.948C375.858 112.458 402.554 127.798 404.201 128.213C418.409 131.789 426.959 111.804 421.936 100.112C419.958 95.5109 390.432 78.193 387.353 80.1624L387.335 80.1536ZM103.199 113.8C99.5374 114.277 75.1327 128.274 74.7567 131.736C74.0584 138.015 105.983 158.141 109.627 139.587C110.155 136.894 110.128 119.311 109.484 116.882C108.463 113.094 106.717 113.341 103.199 113.791V113.8ZM366.404 113.747C364.577 114.118 363.557 114.825 363.046 116.688C362.608 118.313 362.617 137.565 362.993 139.693C363.888 144.709 370.656 148.568 375.571 147.659C379.6 146.917 398.302 136.461 396.923 131.03C396.081 127.727 369.994 113.032 366.404 113.756V113.747ZM118.391 114.648C112.134 115.646 110.943 146.882 121.856 148.021C126.279 148.48 147.962 137.176 146.234 131.021C145.33 127.824 121.561 114.145 118.391 114.648ZM351.158 114.657C348.06 115.24 325.849 128.566 325.41 131.763C324.73 136.735 344.13 147.774 348.284 148.092C363.046 149.231 357.594 115.884 355.884 114.913C354.434 114.092 352.706 114.365 351.158 114.657ZM146.091 142.086C144.578 142.104 128.499 151.032 127.147 152.454C126.001 153.655 114.497 175.23 114.273 176.846C113.745 180.555 113.557 192.883 117.774 194.429C121.534 195.806 145.858 180.564 148.373 176.042C151.399 170.611 154.049 141.998 146.1 142.086H146.091ZM356.556 193.74C358.185 192.079 358.051 176.201 357.451 173.419C357.227 172.377 347.693 156.084 346.78 154.803C343.807 150.679 323.118 136.293 321.023 146.776C318.821 157.779 319.707 174.479 329.081 181.977C332.671 184.847 353.306 197.051 356.547 193.749L356.556 193.74ZM72.6618 142.864C68.1229 144.647 70.0835 171.494 73.1273 176.59C75.9922 181.376 103.262 197.926 107.899 195.285C110.746 193.669 110.155 175.671 108.678 172.43C107.416 169.666 102.438 167.67 100.352 164.747C97.6215 160.923 97.8722 156.499 94.4971 152.86C91.7576 149.902 76.5204 141.345 72.6618 142.864ZM364.157 194.623C366.959 197.475 371.936 193.934 374.703 192.654C379.824 190.269 396.144 180.882 398.704 176.59C401.668 171.627 403.485 145.451 399.779 143.155C396.072 140.859 379.304 150.211 376.941 153.355C374.73 156.296 374.631 161.471 372.393 164.765C370.432 167.653 364.067 170.558 363.234 173.393C362.527 175.795 362.644 193.077 364.148 194.614L364.157 194.623ZM170.379 219.756C167.165 219.995 142.223 233.012 140.952 234.946C136.655 241.463 154.031 250.321 158.678 251.142C163.324 251.963 167.29 250.082 171.883 250.462C175.831 250.789 178.418 253.429 182.626 253.182C186.825 252.926 205.285 242.797 204.452 237.895C203.727 233.639 176.126 219.332 170.379 219.756ZM300.191 219.756C296.511 220.065 271.247 233.621 269.43 236.279C265.133 242.576 284.873 252.723 289.295 253.076C293.718 253.429 295.938 250.824 299.922 250.471C304.389 250.074 308.275 251.787 312.456 251.381C316.413 250.992 334.103 241.702 333.127 237.198C332.151 232.694 306.01 219.271 300.182 219.747L300.191 219.756ZM255.491 280.382C256.896 279.49 256.986 250.983 256.538 247.354C254.228 228.428 218.937 225.399 216.243 249.173C215.732 253.668 215.589 276.09 217.586 278.722C220.325 282.343 230.155 275.119 236.314 275.189C241.023 275.242 253.539 281.618 255.491 280.382ZM133.172 246.276C130.603 248.837 130.737 268.637 131.14 273.026C131.793 280.197 132.42 284.303 138.033 289.187C141.919 292.56 163.539 305.454 167.881 303.025C170.352 301.639 170.209 283.323 169.475 280.258C168.338 275.543 161.22 273.414 159.054 269.343C156.887 265.272 157.899 260.865 156.135 257.209C154.372 253.553 136.52 242.947 133.181 246.276H133.172ZM335.061 245.375C333.342 245.658 317.935 254.401 316.878 255.717C313.825 259.505 315.303 264.689 312.769 269.326C310.862 272.814 304.631 275.551 303.557 278.784C302.33 282.457 301.856 302.31 305.786 303.917C310.217 305.719 337.424 289.019 339.94 283.773C342.106 279.269 342.867 247.38 339.77 245.623C338.266 244.766 336.645 245.128 335.061 245.384V245.375ZM205.249 247.142C200.495 247.919 184.228 257.501 184.801 263.285C185.258 267.833 209.287 284.577 211.713 274.73C212.259 272.505 212.187 254.445 211.749 251.778C210.997 247.23 210.039 246.338 205.24 247.133L205.249 247.142ZM265.231 247.08C259.877 248.378 261.319 275.587 263.127 277.053C266.762 280.011 287.872 268.478 287.881 262.393C287.89 257.068 268.588 246.259 265.231 247.08ZM180.155 272.752C171.596 274.774 172.868 300.385 176.314 302.645C180.415 305.339 205.052 290.882 205.491 287.094C206.099 281.875 185.777 271.427 180.155 272.752ZM286.717 272.761C283.387 273.388 266.86 282.793 267.406 286.926C267.854 290.264 291.632 303.908 294.354 303.334C299.949 302.16 303.611 269.564 286.717 272.761ZM207.944 293.876C206.413 293.982 183.888 306.734 181.543 308.553C162.438 323.416 181.838 350.546 202.232 343.092C204.936 342.103 229.054 328.212 229.546 326.719C230.656 323.31 219.492 318.453 216.207 313.649C212.304 307.944 212.169 293.594 207.944 293.885V293.876ZM262.465 293.841C261.211 294.327 259.895 307.379 257.791 311.353C255.07 316.475 242.08 324.291 242.268 325.854C242.527 328 271.963 344.576 275.867 344.911C291.963 346.28 306.448 323.098 294.022 310.178C291.211 307.255 265.419 292.693 262.474 293.841H262.465ZM232.993 331.938C228.382 332.627 203.002 345.821 204.998 351.102C205.92 353.539 222.859 363.183 225.714 363.483C229.752 363.916 249 362.494 252.635 361.019C254.658 360.198 266.144 353.451 266.771 352.012C269.439 345.9 262.724 344.328 258.552 341.608C251.704 337.149 241.319 330.676 232.984 331.93L232.993 331.938ZM199.877 356.586C197.827 357.081 196.834 359.341 196.484 361.258C195.607 366.035 196.153 391.222 197.863 395.311C200.388 401.342 229.868 418.219 236.484 418.174C242.223 418.13 270.737 401.846 273.709 396.812C276.869 391.443 277.236 368.702 276.269 362.132C275.482 356.754 273.646 355.765 268.561 357.293C267.389 357.646 252.751 365.974 252.098 366.662C246.583 372.491 251.435 387.998 235.473 387.442C221.229 386.939 225.876 372.509 219.851 366.574C217.729 364.481 202.42 355.977 199.895 356.586H199.877Z" fill="#B1B6BA" style="fill:#B1B6BA;fill:color(display-p3 0.6941 0.7137 0.7294);fill-opacity:1;"/>
<path d="M232.529 125.255C277.968 121.038 280.619 188.604 237.152 189.648C195.486 190.644 192.415 128.978 232.529 125.255Z" fill="#B1B6BA" style="fill:#B1B6BA;fill:color(display-p3 0.6941 0.7137 0.7294);fill-opacity:1;"/>
</svg>
